<?xml version="1.0" encoding="UTF-8"?>
<svg version="1.1" xmlns="http://www.w3.org/2000/svg" viewBox="420 150 700 720" width="700" height="720">
<path d="M0 0 C506.88 0 1013.76 0 1536 0 C1536 337.92 1536 675.84 1536 1024 C1029.12 1024 522.24 1024 0 1024 C0 686.08 0 348.16 0 0 Z " fill="#1C0F07" transform="translate(0,0)"/>
<path d="M0 0 C1.36577641 0.19737034 2.73166484 0.39396695 4.09765625 0.58984375 C19.31626515 2.89864224 34.19616108 7.15277087 48 14 C50.89248574 15.27088356 53.78839953 16.53334747 56.6875 17.7890625 C58.96020405 18.9791609 60.39958287 20.00722254 62 22 C62.42317323 24.82115488 62.38718434 26.33950907 60.9375 28.8125 C57.8818903 30.68529304 55.54946457 30.27438874 52 30 C48.8899297 29.00626038 45.9652145 27.67232624 43 26.3125 C31.00371345 21.04195075 18.83873807 16.75115816 6 14 C4.15535156 13.58041016 4.15535156 13.58041016 2.2734375 13.15234375 C-17.27761837 9.08192383 -38.59753437 9.2658965 -58 14 C-58.67780518 14.09756592 -59.35561035 14.19513184 -60.05395508 14.2956543 C-62.13509159 14.83739423 -62.13509159 14.83739423 -63.21337891 16.73974609 C-63.54772949 17.49336426 -63.88208008 18.24698242 -64.2265625 19.0234375 C-64.80627808 20.29223755 -64.80627808 20.29223755 -65.39770508 21.58666992 C-65.8027124 22.50681885 -66.20771973 23.42696777 -66.625 24.375 C-67.51364384 26.31791129 -68.40564105 28.2592919 -69.30078125 30.19921875 C-69.75146973 31.17938965 -70.2021582 32.15956055 -70.66650391 33.16943359 C-72.5870336 37.24607607 -74.68100947 41.21812939 -76.8125 45.1875 C-80.84177956 52.72734357 -84.69657022 60.34383878 -88.5 68 C-92.64151179 76.33188208 -96.85221252 84.61513881 -101.22737122 92.82669067 C-104.34253382 98.69705964 -107.34018253 104.62070817 -110.30078125 110.5703125 C-110.75602173 111.48304932 -111.21126221 112.39578613 -111.68029785 113.33618164 C-112.78779491 115.5569932 -113.89434701 117.77826994 -115 120 C-114.39961411 120.00808685 -113.79922821 120.01617371 -113.1806488 120.02450562 C-106.80246476 120.11208963 -100.42453859 120.21161176 -94.04663086 120.31738281 C-91.68176686 120.35513617 -89.31685579 120.39007065 -86.9519043 120.421875 C-66.05890429 120.70607309 -45.42684565 121.88639536 -24.77001953 125.12231445 C-22.70622219 125.44433069 -20.64050107 125.7510161 -18.57421875 126.05664062 C-11.68607924 127.09940465 -4.97596235 128.36623908 1.70800781 130.35449219 C3.96450256 130.99000264 6.18875929 131.42899055 8.5 131.8125 C33.06200351 136.56269879 57.95712826 147.1447559 80.07421875 158.60546875 C80.89180664 159.02707275 81.70939453 159.44867676 82.55175781 159.88305664 C84.10147846 160.68979313 85.6443337 161.50990868 87.17871094 162.34545898 C91.16944161 164.45630353 91.16944161 164.45630353 95.578125 164.953125 C98.76346399 163.69953998 101.78674865 162.21580699 104.8125 160.625 C144.51428784 140.35643952 184.96349857 129.15545651 228.9375 123.05078125 C230.22527344 122.87200439 231.51304687 122.69322754 232.83984375 122.5090332 C242.43518479 121.29428215 251.8709906 120.86039541 261.54296875 120.90234375 C262.79257889 120.9037587 264.04218903 120.90517365 265.32966614 120.90663147 C268.61258181 120.91124398 271.89544602 120.92018962 275.17834473 120.93133545 C278.54402037 120.94166212 281.90970362 120.94615292 285.27539062 120.95117188 C291.85028012 120.9621391 298.42513586 120.97883025 305 121 C301.89107563 114.90165118 298.78006472 108.80436993 295.66772461 102.70776367 C294.61322815 100.64159213 293.55917777 98.57519284 292.50561523 96.50854492 C287.04465807 85.79716726 281.57486961 75.09355827 275.91029358 64.48805237 C273.64834707 60.25088013 271.46533011 55.98124419 269.3125 51.6875 C268.95414063 50.9958374 268.59578125 50.3041748 268.2265625 49.59155273 C266.24705096 45.73034205 264.50549983 41.82809341 262.88945007 37.79981995 C257.43973178 22.64018954 257.43973178 22.64018954 246.26953125 12.3125 C240.87664428 10.86425562 235.54424766 10.92043109 230 11 C228.07627776 10.91227539 226.15304218 10.81318982 224.23046875 10.703125 C194.788438 9.42718145 166.49060981 17.09880749 139.859375 29.046875 C136.69750483 30.10083172 134.31109874 30.31801513 131 30 C129 28 129 28 128.5625 24.625 C129 21 129 21 131.09375 18.98046875 C155.14964504 2.58754027 189.379206 -2.46618039 217.75 -2.4375 C218.44726196 -2.43781219 219.14452393 -2.43812439 219.86291504 -2.43844604 C252.07576948 -2.32841515 252.07576948 -2.32841515 264 4 C266.0823876 6.44036788 267.50188615 9.17378266 269 12 C269.53890869 12.98000977 270.07781738 13.96001953 270.63305664 14.96972656 C272.50880514 18.40462205 274.35173278 21.85616204 276.1875 25.3125 C276.85968666 26.57341774 277.53205192 27.83424028 278.20458984 29.0949707 C280.14093125 32.72758152 282.07125306 36.36335103 284 40 C284.48194824 40.9084668 284.96389648 41.81693359 285.46044922 42.75292969 C289.36947814 50.13153726 293.24131409 57.52889387 297.078125 64.9453125 C302.82763218 76.05323315 308.64880017 87.10915099 314.66894531 98.07299805 C319.55946521 106.9879742 324.33552845 115.96452493 329 125 C329.3614209 125.66692871 329.7228418 126.33385742 330.09521484 127.02099609 C331.54032235 130.18182757 331.42002966 132.57975845 331 136 C327.30772938 140.76331773 323.80770885 141.92713741 318.04296875 142.66015625 C316.88711021 142.83269928 316.88711021 142.83269928 315.707901 143.00872803 C314.05981394 143.25212726 312.4103067 143.48606702 310.75964355 143.71133423 C308.15079696 144.06751094 305.54668163 144.44871916 302.94238281 144.83666992 C299.49657367 145.3478442 296.04970084 145.84998688 292.60107422 146.34179688 C237.61962682 154.18651836 182.65481672 167.69021427 130.01635742 185.28442383 C127.6724586 186.06752536 125.3274944 186.8473743 122.98242188 187.62695312 C121.45039259 188.13763628 119.9184892 188.64869727 118.38671875 189.16015625 C117.65148483 189.40552628 116.91625092 189.6508963 116.15873718 189.90370178 C111.15705377 191.58361351 106.20710858 193.37282972 101.29101562 195.29101562 C94.01310749 197.5432583 87.73244925 195.95392498 81 193 C73.56176572 189.86474975 66.0005461 187.26349925 58.3125 184.8125 C57.1056958 184.42666748 55.8988916 184.04083496 54.65551758 183.64331055 C13.05461936 170.4562984 -29.1577042 160.24641675 -72 152 C-73.43966706 151.72015248 -74.87927964 151.44002458 -76.31884766 151.15966797 C-99.88384023 146.50248127 -99.88384023 146.50248127 -123.62402344 142.88623047 C-127.38475048 142.40718349 -131.13076529 141.86345927 -134.859375 141.17578125 C-135.58092773 141.04727783 -136.30248047 140.91877441 -137.04589844 140.78637695 C-139.70955249 139.7144592 -140.62919927 138.50190463 -142 136 C-142.16853039 128.42877223 -138.03517998 121.48904855 -134.5 115.0625 C-133.96028564 114.05598389 -133.42057129 113.04946777 -132.86450195 112.01245117 C-131.76558717 109.96337733 -130.66187487 107.91686868 -129.55322266 105.87304688 C-127.78810418 102.60804936 -126.06369144 99.32341842 -124.34667969 96.03295898 C-119.56940943 86.88189054 -114.67327584 77.79449063 -109.78359985 68.70318604 C-105.05683961 59.91002286 -100.43814616 51.06699753 -95.875 42.1875 C-91.33368802 33.37417217 -86.67035417 24.64325731 -81.8125 16 C-81.00111572 14.54823364 -81.00111572 14.54823364 -80.17333984 13.06713867 C-79.66883301 12.17873291 -79.16432617 11.29032715 -78.64453125 10.375 C-78.20471924 9.59898437 -77.76490723 8.82296875 -77.31176758 8.0234375 C-74.07063433 3.02390049 -70.61003947 2.109234 -64.9375 0.875 C-64.22400391 0.70613281 -63.51050781 0.53726562 -62.77539062 0.36328125 C-42.67404045 -4.19949171 -20.23796959 -3.29358973 0 0 Z " fill="#F8D37F" transform="translate(673,411)"/>
<path d="M0 0 C1.81757812 0.40798828 1.81757812 0.40798828 3.671875 0.82421875 C5.09401859 1.1524844 6.51587126 1.48201181 7.9375 1.8125 C11.54092921 2.64906027 15.14497077 3.48285963 18.75 4.3125 C19.70229492 4.53196289 20.65458984 4.75142578 21.63574219 4.97753906 C27.15460019 6.23259473 32.66506066 7.33771087 38.25 8.25 C46.44989776 9.59772372 54.4709525 11.57679654 62.5378418 13.55712891 C68.69178171 15.05903549 74.83966619 16.44325992 81.0625 17.625 C92.73634231 19.86183024 104.29311461 22.62008478 115.8671875 25.31689453 C117.5716002 25.71392893 119.27602726 26.11090172 120.98046875 26.5078125 C122.24387589 26.80209641 122.24387589 26.80209641 123.5328064 27.10232544 C128.8864637 28.34593306 134.2460728 29.55849981 139.61328125 30.7421875 C151.50654315 33.36862839 163.31056178 36.05444185 174.98583984 39.53491211 C182.65730162 41.79972618 190.41058517 43.70024616 198.1875 45.5625 C199.4142041 45.85640625 200.6409082 46.1503125 201.90478516 46.453125 C207.0058004 47.66608143 212.10705538 48.85643706 217.234375 49.953125 C220.9375 50.8125 220.9375 50.8125 221.9375 51.8125 C227.87534397 52.14092057 232.75610107 51.32635328 238.4375 49.6875 C240.11280632 49.22483933 241.7886135 48.7639895 243.46484375 48.3046875 C244.34897949 48.06073242 245.23311523 47.81677734 246.14404297 47.56542969 C251.0763169 46.23601763 256.03977264 45.03255751 261 43.8125 C268.12004394 42.05315902 275.19999261 40.20885275 282.25 38.1875 C289.06354504 36.23824634 295.90821706 34.66701455 302.8684082 33.33154297 C307.51747144 32.41558946 312.02325777 31.23197554 316.5703125 29.89453125 C323.33678666 27.92748019 330.13793881 26.38713092 337.03970337 24.97622681 C340.61867785 24.2442117 344.19396603 23.49455411 347.76953125 22.74609375 C348.51428207 22.59053513 349.2590329 22.4349765 350.02635193 22.27470398 C358.61896769 20.47268806 367.18354165 18.54675986 375.75 16.625 C385.94059715 14.34195451 396.13302089 12.10455155 406.38500977 10.11083984 C412.4237869 8.93386283 418.42121503 7.60428961 424.42089844 6.2434082 C429.3668489 5.13227371 434.32448804 4.15234792 439.3125 3.25 C444.10511469 2.38208371 448.79326621 1.37623109 453.5 0.125 C459.4410404 -1.38638782 463.7362857 -2.41039683 469.3125 0.6875 C471.9375 2.8125 471.9375 2.8125 472.9375 4.8125 C473.29518992 8.60401317 473.37563259 11.01820122 471.51635742 14.38891602 C467.83482594 17.84878187 464.23388734 18.34274633 459.36328125 19.27734375 C458.41428452 19.47623199 457.46528778 19.67512024 456.48753357 19.8800354 C453.41172551 20.52112459 450.33117874 21.13529929 447.25 21.75 C445.14893184 22.18444195 443.04834382 22.62121239 440.94824219 23.06030273 C437.82870324 23.71247734 434.70900804 24.36355667 431.58773804 25.00740051 C423.58508318 26.65948468 415.62766488 28.44466284 407.6875 30.375 C406.19343628 30.73356079 406.19343628 30.73356079 404.66918945 31.09936523 C400.18564591 32.12592857 400.18564591 32.12592857 395.9375 33.8125 C394.38760434 34.08949699 392.83139505 34.33127864 391.2734375 34.55859375 C380.95043123 36.22592032 370.76838478 38.61464905 360.5625 40.875 C359.46522583 41.11694092 358.36795166 41.35888184 357.23742676 41.6081543 C340.83678732 45.22574096 324.47049284 48.97155986 308.14306641 52.90649414 C306.7152019 53.25029831 305.28730576 53.59397111 303.859375 53.9375 C303.1871994 54.0993277 302.5150238 54.2611554 301.82247925 54.42788696 C296.16897259 55.77890144 290.49345496 57.0002015 284.80175781 58.1809082 C282.46591282 58.69598074 280.2181598 59.28814457 277.9375 60 C274.81031025 60.84694722 272.16184857 60.9697853 268.9375 60.8125 C268.9375 61.4725 268.9375 62.1325 268.9375 62.8125 C269.83214966 62.97141724 269.83214966 62.97141724 270.74487305 63.13354492 C277.24957363 64.35321572 283.46677004 66.0577314 289.75 68.125 C290.66458984 68.40794922 291.57917969 68.69089844 292.52148438 68.98242188 C297.88747702 70.74246746 301.4441765 72.30058935 304.9375 76.8125 C305.5625 79.8125 305.5625 79.8125 304.9375 82.8125 C302.98194886 85.71428556 301.51386608 87.47764067 297.98828125 88.2265625 C291.07134744 88.49976276 284.50858023 86.38108255 278.03149414 84.15844727 C271.55268749 81.94152998 264.99140174 80.133533 258.375 78.375 C257.2305542 78.07005615 256.0861084 77.7651123 254.90698242 77.45092773 C252.62889433 76.84569762 250.35034098 76.24221555 248.07128906 75.640625 C246.14266154 75.13097211 244.21475737 74.61856095 242.28808594 74.1015625 C240.11088928 73.5173706 237.93121885 72.94395568 235.75 72.375 C234.58082031 72.06691406 233.41164063 71.75882813 232.20703125 71.44140625 C226.07585494 70.26205215 221.03402984 70.81759794 215.0625 72.5 C214.42465576 72.67716553 213.78681152 72.85433105 213.12963867 73.03686523 C207.42519161 74.63444195 201.7488081 76.33276847 196.0715332 78.02392578 C191.04509038 79.51328477 185.99711675 80.83630763 180.8984375 82.05859375 C177.52366195 82.91787037 174.20804206 83.92891135 170.875 84.9375 C155.67940283 89.27909919 155.67940283 89.27909919 150.25 86.375 C148.80530002 83.55439528 148.37428376 81.07027813 148.2109375 77.91015625 C149.42998601 74.39064522 151.84156084 72.64067758 154.9375 70.8125 C159.06732165 69.10404727 163.28671866 67.7920509 167.5625 66.5 C168.69429687 66.14099609 169.82609375 65.78199219 170.9921875 65.41210938 C179.3505506 62.8125 179.3505506 62.8125 183.9375 62.8125 C183.9375 62.1525 183.9375 61.4925 183.9375 60.8125 C183.31746094 60.78671875 182.69742188 60.7609375 182.05859375 60.734375 C176.48611199 60.3774766 171.35995395 59.4905705 165.98046875 57.98046875 C158.30876141 55.87062107 150.58181391 54.09183128 142.8125 52.375 C140.07509031 51.76494002 137.33826053 51.15230628 134.6015625 50.5390625 C133.93475464 50.38982834 133.26794678 50.24059418 132.58093262 50.08683777 C127.10407781 48.85780891 121.64329313 47.56889375 116.1875 46.25 C106.99250825 44.02969428 97.76350407 41.97437742 88.52246094 39.95483398 C83.24515767 38.79590769 77.99036241 37.59012074 72.75390625 36.2578125 C68.30626359 35.12956229 63.85482684 34.16211036 59.35058594 33.29101562 C55.23353239 32.47460274 51.15116215 31.50926304 47.0625 30.5625 C38.11941845 28.51089778 29.15948883 26.54613081 20.1875 24.625 C18.43977295 24.25036621 18.43977295 24.25036621 16.65673828 23.86816406 C8.9542893 22.22453132 1.23853607 20.66093699 -6.48828125 19.13671875 C-11.03531437 18.13378722 -14.45161112 17.23542307 -18.3125 14.5625 C-20.6550573 10.88133852 -20.96424089 9.09576922 -20.0625 4.8125 C-14.61070731 -2.47787381 -8.34567054 -1.90969199 0 0 Z " fill="#F8D27F" transform="translate(541.0625,567.1875)"/>
<path d="M0 0 C1.27037865 0.01214539 1.27037865 0.01214539 2.56642151 0.02453613 C3.44053177 0.02070923 4.31464203 0.01688232 5.21524048 0.01293945 C7.06367647 0.01021788 8.9121508 0.0175963 10.76051331 0.03430176 C13.58796814 0.05568322 16.41287464 0.03452275 19.24024963 0.00891113 C21.0364792 0.01155487 22.83270718 0.0166808 24.62892151 0.02453613 C25.47381638 0.01643921 26.31871124 0.00834229 27.18920898 0 C27.98005386 0.01260864 28.77089874 0.02521729 29.58570862 0.03820801 C30.27837326 0.04139038 30.9710379 0.04457275 31.68469238 0.04785156 C34.62725096 0.80294819 35.82857773 2.17524397 37.66407776 4.55578613 C38.14509583 7.04888916 38.14509583 7.04888916 38.11817932 9.87512207 C38.1178772 10.9359198 38.11757507 11.99671753 38.11726379 13.08966064 C38.09661865 14.22832581 38.07597351 15.36699097 38.05470276 16.54016113 C38.04904297 17.71089172 38.04338318 18.88162231 38.03755188 20.08782959 C38.01515901 23.82756413 37.96495456 27.5663411 37.91407776 31.30578613 C37.89401664 33.84092855 37.8757652 36.37608598 37.85939026 38.91125488 C37.81528454 45.12642542 37.7483423 51.34103737 37.66407776 57.55578613 C38.62794403 57.54579338 38.62794403 57.54579338 39.61128235 57.53559875 C46.29452007 57.46926838 52.97766439 57.42399498 59.66114807 57.39099121 C62.15597837 57.37589759 64.65078211 57.35542065 67.14552307 57.32946777 C70.72989962 57.29311073 74.31392558 57.27606535 77.89845276 57.26281738 C79.01524414 57.24733353 80.13203552 57.23184967 81.28266907 57.21589661 C82.32344604 57.21567001 83.36422302 57.21544342 84.4365387 57.21520996 C85.35143066 57.20854813 86.26632263 57.20188629 87.2089386 57.19502258 C90.18558746 57.63241792 91.54371074 58.43798144 93.66407776 60.55578613 C94.05745025 63.36414029 94.20169912 65.77583718 94.16017151 68.58312988 C94.16162674 69.36845596 94.16308197 70.15378204 94.1645813 70.96290588 C94.16292213 72.6230541 94.15135864 74.28321767 94.13063049 75.9432373 C94.10172036 78.48076984 94.11001078 81.01620728 94.12306213 83.55383301 C94.11682312 85.16777543 94.1084309 86.78171126 94.09767151 88.39562988 C94.10060715 89.15302963 94.10354279 89.91042938 94.10656738 90.69078064 C94.02990755 94.98643973 93.73492513 97.49121207 90.66407776 100.55578613 C88.29122925 101.0368042 88.29122925 101.0368042 85.45826721 101.0098877 C84.39739395 101.00958557 83.33652069 101.00928345 82.24349976 101.00897217 C81.09967331 100.98832703 79.95584686 100.96768188 78.77735901 100.94641113 C77.60521347 100.94075134 76.43306793 100.93509155 75.22540283 100.92926025 C71.47538198 100.90683935 67.72631065 100.85662997 63.97657776 100.80578613 C61.436878 100.78572864 58.89716329 100.76747657 56.35743713 100.75109863 C50.12599244 100.70695574 43.89510292 100.63998595 37.66407776 100.55578613 C37.66684314 101.22208416 37.66960852 101.88838219 37.6724577 102.57487106 C37.73869247 118.78263478 37.78834609 134.99035566 37.81951427 151.19822311 C37.83498736 159.03621021 37.85608525 166.874107 37.89039612 174.71203613 C37.92028504 181.54307402 37.93964955 188.37404652 37.94634324 195.20514798 C37.95025639 198.82264631 37.9594618 202.43995754 37.98126793 206.05739594 C38.00540602 210.09437889 38.00604809 214.13103596 38.00465393 218.16809082 C38.01543976 219.36930573 38.02622559 220.57052063 38.03733826 221.80813599 C38.03321426 222.90747467 38.02909027 224.00681335 38.02484131 225.13946533 C38.02760669 226.09444286 38.03037207 227.04942039 38.03322124 228.03333664 C37.590606 231.05783701 36.835865 232.41790713 34.66407776 234.55578613 C29.19320397 235.33733953 29.19320397 235.33733953 26.66407776 234.55578613 C23.25225098 231.00129541 22.16391553 228.77015598 22.16287231 223.86303711 C22.15303818 222.72747879 22.14320404 221.59192047 22.1330719 220.42195129 C22.14273987 219.1854332 22.15240784 217.9489151 22.16236877 216.67492676 C22.1542643 214.71078072 22.1542643 214.71078072 22.14599609 212.70695496 C22.13205155 209.12214982 22.14320377 205.53782518 22.15970731 201.9530468 C22.17357419 198.19843051 22.16709587 194.44384165 22.16357422 190.68920898 C22.16087338 184.38440218 22.17433669 178.07978589 22.19752502 171.77502441 C22.22413408 164.48984655 22.22588145 157.2049872 22.21413666 149.91977739 C22.20335066 142.90649377 22.20955237 135.89332516 22.22369194 128.88005066 C22.22944464 125.89769262 22.22937472 122.91541895 22.22462654 119.93305969 C22.21896022 115.76741245 22.23819148 111.60223931 22.26002502 107.43664551 C22.25552338 106.20012741 22.25102173 104.96360931 22.24638367 103.68962097 C22.2562883 102.55406265 22.26619293 101.41850433 22.27639771 100.24853516 C22.2788276 99.26410179 22.2812575 98.27966843 22.28376102 97.26540375 C22.86686275 93.11101723 24.73905395 90.48080994 27.66407776 87.55578613 C29.87870789 87.3152771 29.87870789 87.3152771 32.66456604 87.32873535 C33.70549408 87.32888641 34.74642212 87.32903748 35.81889343 87.32919312 C37.50956436 87.34467697 37.50956436 87.34467697 39.23439026 87.36047363 C40.96143692 87.36471848 40.96143692 87.36471848 42.72337341 87.36904907 C46.41204588 87.38027206 50.10047829 87.40538057 53.78907776 87.43078613 C56.28516801 87.44081319 58.78126206 87.44993951 61.27735901 87.45812988 C67.40635819 87.48021833 73.53517723 87.5147627 79.66407776 87.55578613 C79.66407776 81.94578613 79.66407776 76.33578613 79.66407776 70.55578613 C78.10979065 70.5767334 76.55550354 70.59768066 74.95411682 70.6192627 C69.19184061 70.69161992 63.42960462 70.73757092 57.66700745 70.7755127 C55.17214711 70.79563777 52.67733398 70.82294065 50.18263245 70.85754395 C46.59820408 70.9060207 43.01439891 70.92874634 39.42970276 70.94641113 C38.31291138 70.96705627 37.19612 70.98770142 36.04548645 71.00897217 C34.48432098 71.00942535 34.48432098 71.00942535 32.89161682 71.0098877 C31.97672485 71.01877014 31.06183289 71.02765259 30.11921692 71.0368042 C26.81238012 70.38891903 25.65406497 69.24355366 23.66407776 66.55578613 C23.18305969 64.10064697 23.18305969 64.10064697 23.2099762 61.32824707 C23.21027832 60.28747009 23.21058044 59.24669312 23.21089172 58.17437744 C23.23153687 57.05758606 23.25218201 55.94079468 23.27345276 54.79016113 C23.27911255 53.64162659 23.28477234 52.49309204 23.29060364 51.30975342 C23.31299445 47.64134039 23.36319834 43.97390397 23.41407776 40.30578613 C23.43413915 37.81882107 23.45239054 35.3318407 23.46876526 32.84484863 C23.51286852 26.74811816 23.58191696 20.65211773 23.66407776 14.55578613 C17.39407776 14.55578613 11.12407776 14.55578613 4.66407776 14.55578613 C4.67978821 16.07978027 4.69549866 17.60377441 4.71168518 19.1739502 C4.76595721 24.82444988 4.80041818 30.4749265 4.82887268 36.12561035 C4.84396546 38.57193882 4.86444178 41.0182402 4.89039612 43.46447754 C4.92675694 46.9793567 4.94379937 50.49387831 4.95704651 54.00891113 C4.97253036 55.10382874 4.98801422 56.19874634 5.00396729 57.32684326 C5.00419388 58.34759949 5.00442047 59.36835571 5.00465393 60.42004395 C5.01464668 61.76573456 5.01464668 61.76573456 5.02484131 63.13861084 C4.58619837 66.07759091 3.70600625 67.42157564 1.66407776 69.55578613 C-1.26510517 70.53218044 -3.12617963 70.67714794 -6.17454529 70.66931152 C-7.64573067 70.66919823 -7.64573067 70.66919823 -9.14663696 70.66908264 C-10.20296829 70.66392136 -11.25929962 70.65876007 -12.34764099 70.65344238 C-13.43100235 70.65202744 -14.51436371 70.65061249 -15.6305542 70.64915466 C-19.09487149 70.64355172 -22.55912444 70.63099871 -26.02342224 70.61828613 C-28.37042652 70.61327151 -30.7174318 70.60870854 -33.06443787 70.60461426 C-38.82162416 70.59358134 -44.57876229 70.57631471 -50.33592224 70.55578613 C-50.33592224 76.16578613 -50.33592224 81.77578613 -50.33592224 87.55578613 C-48.14866516 87.53222046 -48.14866516 87.53222046 -45.91722107 87.50817871 C-40.5033776 87.45384787 -35.0895582 87.41942428 -29.67552185 87.39099121 C-27.3330327 87.37591185 -24.99057174 87.35544536 -22.6481781 87.32946777 C-19.27969907 87.29304792 -15.9115936 87.27605101 -12.54295349 87.26281738 C-11.49694473 87.24733353 -10.45093597 87.23184967 -9.37322998 87.21589661 C-0.0501942 87.21374236 -0.0501942 87.21374236 3.66407776 90.55578613 C5.70226899 93.8031022 5.92043705 96.36752191 5.93823242 100.16624451 C5.94820755 101.30884232 5.95818268 102.45144012 5.96846008 103.62866211 C5.96912476 104.87812622 5.96978943 106.12759033 5.97047424 107.41491699 C5.97879776 108.73395523 5.98712128 110.05299347 5.99569702 111.41200256 C6.01762742 115.0276971 6.02643866 118.64330709 6.03152347 122.25906062 C6.03516808 124.51850241 6.0414086 126.77792207 6.04852486 129.03735542 C6.07301208 136.92103167 6.08607015 144.80464216 6.08961487 152.68835449 C6.09325195 160.03551364 6.12316116 167.38225552 6.16501945 174.72928709 C6.199709 181.03938699 6.21516305 187.34934847 6.2158609 193.6595431 C6.21665404 197.42745384 6.22540904 201.19493923 6.25385857 204.96275139 C6.28001776 208.50635134 6.28225749 212.04917258 6.26620293 215.59282494 C6.26352155 217.51106017 6.28558573 219.4292801 6.30839539 221.34738159 C6.22843442 230.72796968 6.22843442 230.72796968 3.31802368 233.85975647 C0.66407776 235.55578613 0.66407776 235.55578613 -2.39842224 235.68078613 C-6.27463568 234.19627886 -7.24376575 233.18435382 -9.33592224 229.55578613 C-9.92242247 225.45143298 -9.84051795 221.37751197 -9.7900238 217.23815918 C-9.79060791 215.98897202 -9.79119202 214.73978485 -9.79179382 213.45274353 C-9.7894874 210.03541224 -9.76945281 206.61905205 -9.74149799 203.20189261 C-9.71646263 199.62781378 -9.71414067 196.05372147 -9.70939636 192.47956848 C-9.69697279 185.71516086 -9.66415979 178.95101237 -9.6239984 172.18671876 C-9.57926125 164.48424672 -9.5572888 156.78176218 -9.53721666 149.07919252 C-9.49542642 133.23790708 -9.42508668 117.39688004 -9.33592224 101.55578613 C-9.96597168 101.56466858 -10.59602112 101.57355103 -11.24516296 101.58270264 C-17.79859857 101.67114884 -24.35186484 101.73150919 -30.90574646 101.7755127 C-33.35210557 101.79563665 -35.79841653 101.82293873 -38.24461365 101.85754395 C-41.75954565 101.90602577 -45.27384208 101.92874742 -48.78904724 101.94641113 C-49.88396484 101.96705627 -50.97888245 101.98770142 -52.10697937 102.00897217 C-53.1277356 102.00927429 -54.14849182 102.00957642 -55.20018005 102.0098877 C-56.09730713 102.01877014 -56.9944342 102.02765259 -57.91874695 102.0368042 C-61.1114478 101.40145649 -62.28678223 100.0227545 -64.33592224 97.55578613 C-66.57926398 93.06910266 -65.64711599 86.56172207 -65.6860199 81.58044434 C-65.70256586 80.02755736 -65.72983866 78.47474613 -65.76805115 76.92224121 C-65.82296638 74.67859572 -65.84471362 72.43673288 -65.85935974 70.19250488 C-65.8933638 69.15787361 -65.8933638 69.15787361 -65.92805481 68.1023407 C-65.91285868 64.6160646 -65.35719247 62.59051245 -63.5309906 59.60900879 C-58.69900089 56.50386372 -54.31597303 56.93430963 -48.69139099 57.06750488 C-47.00400566 57.07811699 -47.00400566 57.07811699 -45.28253174 57.08894348 C-41.69548075 57.11689469 -38.11000012 57.17963897 -34.52342224 57.24328613 C-32.08920002 57.26836786 -29.65495329 57.29118124 -27.22068787 57.31164551 C-21.25856504 57.36672387 -15.29735584 57.45035908 -9.33592224 57.55578613 C-9.34258408 56.90068054 -9.34924591 56.24557495 -9.35610962 55.57061768 C-9.42243549 48.75761824 -9.46771154 41.94471039 -9.50071716 35.13146973 C-9.5158116 32.58813757 -9.53628913 30.04483146 -9.5622406 27.50158691 C-9.59859401 23.84771293 -9.61564222 20.19418284 -9.62889099 16.54016113 C-9.64437485 15.40149597 -9.6598587 14.26283081 -9.67581177 13.08966064 C-9.67603836 12.02886292 -9.67626495 10.96806519 -9.67649841 9.87512207 C-9.68316025 8.94246521 -9.68982208 8.00980835 -9.69668579 7.04888916 C-8.8150542 0.95626034 -5.77433976 0.09243019 0 0 Z " fill="#F5CF7E" transform="translate(753.3359222412109,229.4442138671875)"/>
<path d="M0 0 C1.18158691 -0.00435059 2.36317383 -0.00870117 3.58056641 -0.01318359 C4.83659668 -0.00367676 6.09262695 0.00583008 7.38671875 0.015625 C9.31330322 0.02795166 9.31330322 0.02795166 11.27880859 0.04052734 C19.71061698 0.14028032 27.81208759 0.47944706 36.07421875 2.265625 C37.03070312 2.46462402 37.9871875 2.66362305 38.97265625 2.86865234 C42.38626265 3.58471913 45.79329504 4.32639068 49.19921875 5.078125 C50.28477051 5.31418457 51.37032227 5.55024414 52.48876953 5.79345703 C60.0758623 7.54202234 66.97405227 10.09441671 74.07421875 13.265625 C75.63605537 13.93124624 77.1985033 14.59543594 78.76171875 15.2578125 C100.55048597 24.70741239 100.55048597 24.70741239 109.07421875 32.265625 C109.65304392 35.232104 109.54349191 36.54936596 107.88671875 39.078125 C105.40063489 40.70693856 104.02260232 40.57775717 101.07421875 40.265625 C98.48046875 38.83203125 98.48046875 38.83203125 95.57421875 36.828125 C89.80459338 33.04347035 83.79702608 30.20396878 77.44921875 27.515625 C76.59134766 27.15154541 75.73347656 26.78746582 74.84960938 26.41235352 C64.50017633 22.09976132 54.25353677 18.61599438 43.32421875 16.078125 C42.24011719 15.81837891 41.15601563 15.55863281 40.0390625 15.29101562 C32.22492452 13.44481819 24.76952382 12.16850136 16.71484375 12.0546875 C15.33852896 12.02665888 13.96222699 11.9979948 12.5859375 11.96875 C10.44417142 11.92730601 8.30265605 11.89036222 6.16064453 11.86425781 C4.07406259 11.83670904 1.98852445 11.79089885 -0.09765625 11.7421875 C-1.95535645 11.7124585 -1.95535645 11.7124585 -3.85058594 11.68212891 C-6.92578125 11.265625 -6.92578125 11.265625 -8.86035156 9.92724609 C-9.92578125 8.265625 -9.92578125 8.265625 -9.80078125 5.203125 C-8.21326767 -0.12638487 -4.93776526 0.01042744 0 0 Z " fill="#F4CF7D" transform="translate(634.92578125,443.734375)"/>
<path d="M0 0 C1.1957666 -0.01836914 2.3915332 -0.03673828 3.62353516 -0.05566406 C11.94532847 0.00423081 11.94532847 0.00423081 16.046875 2.53125 C16.60890625 3.1809375 17.1709375 3.830625 17.75 4.5 C16.875 10.375 16.875 10.375 15.75 11.5 C13.8981967 11.61041643 12.04248687 11.656008 10.1875 11.67578125 C-26.92052662 12.33121158 -61.98397644 19.65598429 -93.25 40.5 C-95.75 40.875 -95.75 40.875 -98.25 40.5 C-100.125 38.75 -100.125 38.75 -101.25 36.5 C-100.72076099 32.20281513 -98.53042233 30.60773914 -95.31005859 27.99902344 C-91.90324817 25.52002178 -88.30568935 23.54693479 -84.5625 21.625 C-83.74305908 21.20009277 -82.92361816 20.77518555 -82.0793457 20.33740234 C-56.16837485 7.17650857 -29.1082217 0.24998603 0 0 Z " fill="#F3CE7C" transform="translate(892.25,443.5)"/>
<path d="M0 0 C1.08796875 -0.02900391 2.1759375 -0.05800781 3.296875 -0.08789062 C4.3384375 -0.09626953 5.38 -0.10464844 6.453125 -0.11328125 C7.39833008 -0.12786377 8.34353516 -0.14244629 9.31738281 -0.1574707 C11.75 0.3125 11.75 0.3125 13.58886719 2.21020508 C14.75 4.3125 14.75 4.3125 14.625 6.375 C13.57900306 8.69113608 12.7737595 9.75417025 10.75 11.3125 C7.90942383 11.77319336 7.90942383 11.77319336 4.45703125 11.90234375 C3.19463623 11.96196289 1.93224121 12.02158203 0.6315918 12.08300781 C-0.36573471 12.12294861 -0.36573471 12.12294861 -1.38320923 12.16369629 C-13.07748584 12.65498967 -24.05372658 13.58857536 -35.25 17.3125 C-35.91676758 17.52390625 -36.58353516 17.7353125 -37.27050781 17.953125 C-51.07120504 22.34280586 -64.62101816 27.81159822 -76.453125 36.25 C-79.14008686 37.83881223 -81.23151571 37.90147254 -84.25 37.3125 C-86.25 35.3125 -86.25 35.3125 -86.8125 32.5625 C-85.98498356 27.78129391 -83.03254841 26.11618097 -79.25 23.3125 C-76.71880916 21.67809459 -74.11551902 20.25348503 -71.4375 18.875 C-70.32955078 18.302052 -70.32955078 18.302052 -69.19921875 17.7175293 C-47.73755261 6.85301398 -24.10815416 0.2173211 0 0 Z " fill="#F3CD7B" transform="translate(888.25,477.6875)"/>
<path d="M0 0 C0.81855469 -0.00427002 1.63710938 -0.00854004 2.48046875 -0.01293945 C3.79917969 0.00119995 3.79917969 0.00119995 5.14453125 0.015625 C6.05074219 0.02311768 6.95695313 0.03061035 7.890625 0.03833008 C26.71878976 0.33584433 45.89127237 4.16564249 62.95703125 12.265625 C64.80974432 13.11621552 66.66262643 13.96643786 68.515625 14.81640625 C70.58031083 15.7767481 72.64410321 16.73901299 74.70703125 17.703125 C75.69034424 18.15768066 76.67365723 18.61223633 77.68676758 19.08056641 C83.45364666 21.8214841 89.4173465 24.66565123 93.95703125 29.265625 C94.58203125 32.515625 94.58203125 32.515625 93.95703125 35.265625 C91.95703125 37.265625 91.95703125 37.265625 89.28515625 37.640625 C85.09818777 37.1688539 82.21520053 35.4341519 78.70703125 33.265625 C59.42224584 22.00967103 36.55112085 12.53775262 13.91796875 12.0546875 C13.00789062 12.02632813 12.0978125 11.99796875 11.16015625 11.96875 C9.26713169 11.9164565 7.37386729 11.87224925 5.48046875 11.8359375 C4.11921875 11.78953125 4.11921875 11.78953125 2.73046875 11.7421875 C1.90981934 11.72236816 1.08916992 11.70254883 0.24365234 11.68212891 C-2.57819577 11.16813436 -3.98648275 10.2464407 -6.04296875 8.265625 C-6.41796875 5.203125 -6.41796875 5.203125 -6.04296875 2.265625 C-3.67742425 -0.0999195 -3.2094015 0.00989139 0 0 Z " fill="#F4CF7D" transform="translate(640.04296875,477.734375)"/>
<path d="M0 0 C2.206875 -0.04125 4.41375 -0.0825 6.6875 -0.125 C8.54955078 -0.15980469 8.54955078 -0.15980469 10.44921875 -0.1953125 C14.96637288 0.05315582 17.78622285 0.78622285 21 4 C21.08579993 6.70269766 21.09596891 9.30753896 21 12 C21 12.99 21 13.98 21 15 C21.66 15.66 22.32 16.32 23 17 C22.9375 20.4375 22.9375 20.4375 22 24 C17.70462711 27.66025939 13.52244448 27.36055006 8.1875 27.1875 C4.1346875 27.0946875 4.1346875 27.0946875 0 27 C0 18.09 0 9.18 0 0 Z " fill="#EECB8C" transform="translate(583,702)"/>
<path d="M0 0 C3.67811263 1.27319283 5.50039598 2.35051477 7.875 5.4375 C9.82846865 11.62348407 10.35201083 18.18331077 7.5 24.125 C4.14707857 26.63969107 1.20862342 27.8351099 -3 28 C-7.01314325 26.75000456 -10.42763723 25.42981703 -13 22 C-14.62197607 17.1340718 -15.0101764 11.74047856 -13.2109375 6.859375 C-9.84370945 0.74181564 -6.8086674 -0.57700571 0 0 Z " fill="#EAC485" transform="translate(835,702)"/>
<path d="M0 0 C1.65 0 3.3 0 5 0 C7.30442525 5.92566493 9.23536928 11.89262558 11 18 C13.41116504 12.02716478 15.76286232 6.04027175 18 0 C19.65 0 21.3 0 23 0 C23.83857688 2.60258324 24.67103344 5.20685647 25.5 7.8125 C25.73847656 8.55048828 25.97695313 9.28847656 26.22265625 10.04882812 C27.19940136 13.13255196 28 15.74495809 28 19 C28.66 19 29.32 19 30 19 C30.0825 17.906875 30.165 16.81375 30.25 15.6875 C30.91504378 10.15870322 32.96459272 5.15005376 35 0 C36.98 0 38.96 0 41 0 C38 9 35 18 32 27 C30.02 27 28.04 27 26 27 C25.15875684 24.75267898 24.32685168 22.50261215 23.5 20.25 C23.26152344 19.61578125 23.02304687 18.9815625 22.77734375 18.328125 C21.55198242 14.96713393 21 12.63128413 21 9 C20.34 9 19.68 9 19 9 C18.87753906 9.85851562 18.75507812 10.71703125 18.62890625 11.6015625 C17.99872884 15.00686898 17.06437721 18.10342101 15.9375 21.375 C15.57527344 22.43460938 15.21304688 23.49421875 14.83984375 24.5859375 C14.56269531 25.38257813 14.28554688 26.17921875 14 27 C12.02 27 10.04 27 8 27 C6.66197735 22.876506 5.33037699 18.75096648 4 14.625 C3.6184375 13.449375 3.236875 12.27375 2.84375 11.0625 C2.4828125 9.94101562 2.121875 8.81953125 1.75 7.6640625 C1.41484375 6.62717285 1.0796875 5.5902832 0.734375 4.52197266 C0 2 0 2 0 0 Z " fill="#EDC887" transform="translate(689,702)"/>
<path d="M0 0 C15.85185185 0 15.85185185 0 19.8125 3.6875 C21.50193235 6.97744721 21.38438874 9.34830698 21 13 C20.46375 13.86625 19.9275 14.7325 19.375 15.625 C18.92125 16.40875 18.4675 17.1925 18 18 C18.59742124 20.61880754 18.59742124 20.61880754 20 23 C20.37125 23.763125 20.7425 24.52625 21.125 25.3125 C21.41375 25.869375 21.7025 26.42625 22 27 C19.3125 27.4375 19.3125 27.4375 16 27 C14.55587877 25.30868685 13.47026233 23.51445478 12.30078125 21.625 C10.97524436 19.64654066 10.97524436 19.64654066 7.6875 19.0625 C6.800625 19.041875 5.91375 19.02125 5 19 C5 21.64 5 24.28 5 27 C3.35 27 1.7 27 0 27 C0 18.09 0 9.18 0 0 Z " fill="#EFC889" transform="translate(621,702)"/>
<path d="M0 0 C1.65 0 3.3 0 5 0 C5 3.63 5 7.26 5 11 C8.96 11 12.92 11 17 11 C17 7.37 17 3.74 17 0 C18.98 0 20.96 0 23 0 C23 8.91 23 17.82 23 27 C21.02 27 19.04 27 17 27 C17 23.37 17 19.74 17 16 C13.04 16 9.08 16 5 16 C5 19.63 5 23.26 5 27 C3.35 27 1.7 27 0 27 C0 18.09 0 9.18 0 0 Z " fill="#DBB77F" transform="translate(509,702)"/>
<path d="M0 0 C6.6 0 13.2 0 20 0 C20 1.65 20 3.3 20 5 C15.38 5 10.76 5 6 5 C6 6.98 6 8.96 6 11 C9.96 11 13.92 11 18 11 C18 12.65 18 14.3 18 16 C13.71 16 9.42 16 5 16 C5 18.31 5 20.62 5 23 C9.62 23 14.24 23 19 23 C19 24.32 19 25.64 19 27 C12.73 27 6.46 27 0 27 C0 18.09 0 9.18 0 0 Z " fill="#E0BD80" transform="translate(548,702)"/>
<path d="M0 0 C6.27 0 12.54 0 19 0 C19 1.65 19 3.3 19 5 C14.71 5 10.42 5 6 5 C6 6.98 6 8.96 6 11 C9.96 11 13.92 11 18 11 C18 12.65 18 14.3 18 16 C13.71 16 9.42 16 5 16 C5 18.31 5 20.62 5 23 C9.62 23 14.24 23 19 23 C19 24.32 19 25.64 19 27 C12.73 27 6.46 27 0 27 C0 18.09 0 9.18 0 0 Z " fill="#E7C385" transform="translate(657,702)"/>
<path d="M0 0 C5.61 0 11.22 0 17 0 C17 1.65 17 3.3 17 5 C13.04 5 9.08 5 5 5 C5 6.65 5 8.3 5 10 C5.60328125 10.02578125 6.2065625 10.0515625 6.828125 10.078125 C10.61890228 10.3471479 13.31177634 10.56356548 16.5625 12.625 C18.61788594 16.02085504 18.61585582 18.09957982 18 22 C15.49279736 25.49488853 13.83046871 26.76496169 9.6875 27.9375 C5.36078503 28.01083415 2.13467837 27.23314969 -2 26 C-2 24.68 -2 23.36 -2 22 C2 22 6 22 10 22 C10.38218767 20.34385343 10.71395102 18.67542976 11 17 C9.26043342 15.26043342 6.8063378 15.62809614 4.4375 15.4375 C2.643125 15.293125 0.84875 15.14875 -1 15 C-0.67 10.05 -0.34 5.1 0 0 Z " fill="#E3C086" transform="translate(1008,702)"/>
<path d="M0 0 C1.40765625 0.00580078 1.40765625 0.00580078 2.84375 0.01171875 C5.52087334 0.3148636 7.19965635 0.95073996 9.5 2.3125 C8.84 3.6325 8.18 4.9525 7.5 6.3125 C3.87 6.3125 0.24 6.3125 -3.5 6.3125 C-3.5 7.6325 -3.5 8.9525 -3.5 10.3125 C-2.82453125 10.48265625 -2.1490625 10.6528125 -1.453125 10.828125 C8.25615341 13.46590584 8.25615341 13.46590584 10.5 17.3125 C10.5 21.04164778 10.35683566 23.32384347 7.875 26.1875 C2.79192562 28.59527208 -1.18520792 28.6175057 -6.4375 26.875 C-7.79720432 26.36879956 -9.15353014 25.85291988 -10.5 25.3125 C-10.17 23.6625 -9.84 22.0125 -9.5 20.3125 C-8.84 20.6425 -8.18 20.9725 -7.5 21.3125 C-3.63938967 22.59937011 -0.55849717 22.45007618 3.5 22.3125 C3.5 20.9925 3.5 19.6725 3.5 18.3125 C2.48679687 18.07466797 2.48679687 18.07466797 1.453125 17.83203125 C-2.72900421 16.73815063 -5.83782608 15.86687816 -9.1875 13.0625 C-10.96893174 9.32997635 -10.66432866 7.24210924 -9.5 3.3125 C-6.45526254 0.31620155 -4.20082554 -0.07501474 0 0 Z " fill="#E9C586" transform="translate(752.5,701.6875)"/>
<path d="M0 0 C2.63920026 2.01821197 3.0070733 3.00588485 3.625 6.25 C2.86668112 11.36865247 -0.3182327 14.04538409 -3.875 17.625 C-5.0815625 18.8625 -5.0815625 18.8625 -6.3125 20.125 C-6.828125 20.62 -7.34375 21.115 -7.875 21.625 C-4.245 21.625 -0.615 21.625 3.125 21.625 C3.125 22.945 3.125 24.265 3.125 25.625 C-3.475 25.625 -10.075 25.625 -16.875 25.625 C-15.75265018 20.01325088 -15.75265018 20.01325088 -12.0625 17.0625 C-11.34449219 16.46566406 -10.62648438 15.86882813 -9.88671875 15.25390625 C-9.22285156 14.71636719 -8.55898438 14.17882812 -7.875 13.625 C-4.53619796 10.91420686 -4.53619796 10.91420686 -3.5625 6.9375 C-3.63155686 4.66642874 -3.63155686 4.66642874 -4.875 3.625 C-7.21172984 3.9336247 -9.54493089 4.26956573 -11.875 4.625 C-13.195 4.625 -14.515 4.625 -15.875 4.625 C-16.205 3.635 -16.535 2.645 -16.875 1.625 C-11.06976161 -1.21838207 -6.22354564 -2.97647835 0 0 Z " fill="#EAC789" transform="translate(988.875,703.375)"/>
<path d="M0 0 C2.23389928 2.88245068 2.60205641 4.9094888 2.359375 8.54296875 C1.24804822 13.69829022 -3.13694592 16.42321437 -7.0625 19.5 C-7.3925 20.16 -7.7225 20.82 -8.0625 21.5 C-4.4325 21.5 -0.8025 21.5 2.9375 21.5 C2.9375 22.82 2.9375 24.14 2.9375 25.5 C-3.3325 25.5 -9.6025 25.5 -16.0625 25.5 C-16.0625 20.5 -16.0625 20.5 -14.453125 18.62109375 C-13.74671875 18.06550781 -13.0403125 17.50992188 -12.3125 16.9375 C-11.22001953 16.04224609 -11.22001953 16.04224609 -10.10546875 15.12890625 C-9.43128906 14.59136719 -8.75710938 14.05382812 -8.0625 13.5 C-4.73429129 10.59848472 -3.5543535 8.92668146 -3.0625 4.5 C-3.66578125 4.5 -4.2690625 4.5 -4.890625 4.5 C-8.61458333 4.5 -12.33854167 4.5 -16.0625 4.5 C-16.7225 3.84 -17.3825 3.18 -18.0625 2.5 C-13.31402934 -2.70070596 -6.14402263 -3.00931721 0 0 Z " fill="#EDC988" transform="translate(894.0625,703.5)"/>
<path d="M0 0 C1.4540625 0.0309375 1.4540625 0.0309375 2.9375 0.0625 C1.26520299 4.02219176 -1.42554994 7.0786201 -4.1875 10.3125 C-4.65542969 10.86679687 -5.12335937 11.42109375 -5.60546875 11.9921875 C-6.75425328 13.35197326 -7.90789653 14.70765165 -9.0625 16.0625 C-6.7525 16.3925 -4.4425 16.7225 -2.0625 17.0625 C-2.0625 15.7425 -2.0625 14.4225 -2.0625 13.0625 C-0.4125 13.0625 1.2375 13.0625 2.9375 13.0625 C2.9375 14.3825 2.9375 15.7025 2.9375 17.0625 C4.2575 17.0625 5.5775 17.0625 6.9375 17.0625 C6.9375 18.3825 6.9375 19.7025 6.9375 21.0625 C5.6175 21.0625 4.2975 21.0625 2.9375 21.0625 C2.9375 23.0425 2.9375 25.0225 2.9375 27.0625 C1.2875 27.0625 -0.3625 27.0625 -2.0625 27.0625 C-2.0625 25.0825 -2.0625 23.1025 -2.0625 21.0625 C-6.6825 21.0625 -11.3025 21.0625 -16.0625 21.0625 C-16.3925 19.7425 -16.7225 18.4225 -17.0625 17.0625 C-15.125 15 -15.125 15 -13.73828125 13.76171875 C-10.65835868 10.63872034 -8.27089269 6.95700702 -5.734375 3.390625 C-3.34857173 0.0683382 -3.34857173 0.0683382 0 0 Z " fill="#F1CA8D" transform="translate(926.0625,701.9375)"/>
<path d="M0 0 C0.33 0 0.66 0 1 0 C1.33 6.93 1.66 13.86 2 21 C2.99 17.535 2.99 17.535 4 14 C5.7492214 13.91857073 7.49954542 13.86061459 9.25 13.8125 C10.71179688 13.76029297 10.71179688 13.76029297 12.203125 13.70703125 C15.37468742 14.03924798 16.67040307 14.88672279 19 17 C19.99 16.01 20.98 15.02 22 14 C22.33 14.33 22.66 14.66 23 15 C22.875 18.375 22.875 18.375 22 22 C17.71506703 25.66683348 13.51678641 25.36036653 8.1875 25.1875 C4.1346875 25.0946875 4.1346875 25.0946875 0 25 C0 16.75 0 8.5 0 0 Z " fill="#E5BF82" transform="translate(583,704)"/>
<path d="M0 0 C2.65986019 0.95482161 3.69461645 1.68394639 5.4375 3.875 C6.2869418 8.75244001 5.71361503 13.46502713 3.4375 17.875 C1.1275 18.205 -1.1825 18.535 -3.5625 18.875 C-6.5703759 15.56394298 -6.99451201 13.24131077 -7 8.8125 C-7.01933594 7.76964844 -7.03867187 6.72679687 -7.05859375 5.65234375 C-6.5625 2.875 -6.5625 2.875 -4.6953125 0.99609375 C-2.5625 -0.125 -2.5625 -0.125 0 0 Z " fill="#31201B" transform="translate(833.5625,706.125)"/>
<path d="M0 0 C1.65 0 3.3 0 5 0 C7.30442525 5.92566493 9.23536928 11.89262558 11 18 C11.26554688 17.43410156 11.53109375 16.86820313 11.8046875 16.28515625 C12.15789063 15.55167969 12.51109375 14.81820312 12.875 14.0625 C13.22304688 13.33160156 13.57109375 12.60070312 13.9296875 11.84765625 C15 10 15 10 17 9 C18.14817507 13.80933709 17.75636919 16.75535676 16.0625 21.375 C15.68222656 22.43460938 15.30195312 23.49421875 14.91015625 24.5859375 C14.60980469 25.38257813 14.30945313 26.17921875 14 27 C12.02 27 10.04 27 8 27 C6.66197735 22.876506 5.33037699 18.75096648 4 14.625 C3.6184375 13.449375 3.236875 12.27375 2.84375 11.0625 C2.4828125 9.94101562 2.121875 8.81953125 1.75 7.6640625 C1.41484375 6.62717285 1.0796875 5.5902832 0.734375 4.52197266 C0 2 0 2 0 0 Z " fill="#EBC78A" transform="translate(689,702)"/>
<path d="M0 0 C3.3 0 6.6 0 10 0 C10 8.91 10 17.82 10 27 C8.35 27 6.7 27 5 27 C5 19.41 5 11.82 5 4 C3.35 4 1.7 4 0 4 C0 2.68 0 1.36 0 0 Z " fill="#EBC784" transform="translate(796,702)"/>
<path d="M0 0 C1.65 0 3.3 0 5 0 C5 3.96 5 7.92 5 12 C8.96 12 12.92 12 17 12 C17 12.33 17 12.66 17 13 C13.7 13 10.4 13 7 13 C7 13.66 7 14.32 7 15 C6.34 15 5.68 15 5 15 C5 18.96 5 22.92 5 27 C3.35 27 1.7 27 0 27 C0 18.09 0 9.18 0 0 Z " fill="#EDC889" transform="translate(509,702)"/>
<path d="M0 0 C10.7421875 -0.1953125 10.7421875 -0.1953125 14 0 C14.66 0.66 15.32 1.32 16 2 C12.17010894 3.80230168 9.21878192 4.19622241 5 4 C5 6.64 5 9.28 5 12 C7.97 12 10.94 12 14 12 C14 12.99 14 13.98 14 15 C9.545 15.495 9.545 15.495 5 16 C4.71125 17.134375 4.4225 18.26875 4.125 19.4375 C3.75375 20.613125 3.3825 21.78875 3 23 C2.34 23.33 1.68 23.66 1 24 C0.67 16.08 0.34 8.16 0 0 Z " fill="#F2CF90" transform="translate(583,702)"/>
<path d="M0 0 C0.66 0.66 1.32 1.32 2 2 C2.66 1.34 3.32 0.68 4 0 C5.78933876 1.78933876 5.25643059 4.3301621 5.3125 6.75 C5.26289771 10.54682975 5.15703738 12.67283879 3.5 16.125 C-0.01537349 18.76153011 -2.63523097 19.37646157 -7 20 C-7.99 19.34 -8.98 18.68 -10 18 C-9.67 17.34 -9.34 16.68 -9 16 C-5.9375 15.375 -5.9375 15.375 -3 15 C-1.08373163 10.01770224 -0.4452885 5.27315333 0 0 Z " fill="#EDCA8A" transform="translate(839,710)"/>
<path d="M0 0 C0.66 0 1.32 0 2 0 C2.37603306 6.39256198 2.37603306 6.39256198 0.375 9.625 C-0.07875 10.40875 -0.5325 11.1925 -1 12 C-0.40257876 14.61880754 -0.40257876 14.61880754 1 17 C1.37125 17.763125 1.7425 18.52625 2.125 19.3125 C2.41375 19.869375 2.7025 20.42625 3 21 C0.25 21.3125 0.25 21.3125 -3 21 C-5.65625502 18.55911701 -6.81590892 16.47045498 -8.125 13.125 C-7.95975944 8.99398597 -6.34334151 7.50677804 -3.54296875 4.61328125 C-1.79103247 2.87529602 -1.79103247 2.87529602 0 0 Z " fill="#EECA8A" transform="translate(640,708)"/>
<path d="M0 0 C1.98 0 3.96 0 6 0 C6.07347656 1.03060547 6.07347656 1.03060547 6.1484375 2.08203125 C6.22320313 2.98308594 6.29796875 3.88414062 6.375 4.8125 C6.44460938 5.70582031 6.51421875 6.59914063 6.5859375 7.51953125 C6.86645036 10.24398499 6.86645036 10.24398499 9 13 C12.58357241 13.25015873 12.58357241 13.25015873 16 13 C15.67 13.66 15.34 14.32 15 15 C13.02 15 11.04 15 9 15 C8.67 15.99 8.34 16.98 8 18 C3.95459947 15.92263216 1.72287219 14.26184172 0 10 C-0.23632823 6.65030419 -0.17570967 3.35149935 0 0 Z " fill="#E1BB7C" transform="translate(821,711)"/>
<path d="M0 0 C1.258125 -0.04125 2.51625 -0.0825 3.8125 -0.125 C4.52019531 -0.14820313 5.22789062 -0.17140625 5.95703125 -0.1953125 C8 0 8 0 11 2 C11.42552252 4.76589638 11.35833436 6.35051898 10 8.8125 C6.76011038 10.73618446 3.7174181 10.18282384 0 10 C0 6.7 0 3.4 0 0 Z " fill="#38231E" transform="translate(626,707)"/>
<path d="M0 0 C1.4540625 0.0309375 1.4540625 0.0309375 2.9375 0.0625 C1.31939953 3.70538929 -0.90116385 6.63587684 -3.375 9.75 C-4.13425781 10.72324219 -4.89351562 11.69648437 -5.67578125 12.69921875 C-8.24115557 15.23940117 -9.52348913 15.79315935 -13.0625 16.0625 C-13.0625 12.01110621 -11.01641463 9.99299487 -8.625 6.9375 C-8.20412109 6.38707031 -7.78324219 5.83664062 -7.34960938 5.26953125 C-3.35618362 0.06849354 -3.35618362 0.06849354 0 0 Z " fill="#E5C187" transform="translate(926.0625,701.9375)"/>
<path d="M0 0 C1.98 0 3.96 0 6 0 C5.26530822 2.20407533 4.52864017 4.40697461 3.77734375 6.60546875 C2.91474266 9.15159728 2.91474266 9.15159728 2.1875 12.4375 C1 15 1 15 -2.125 16.375 C-3.07375 16.58125 -4.0225 16.7875 -5 17 C-3.83348574 11.07136283 -2.24480642 5.61201606 0 0 Z " fill="#EBC685" transform="translate(724,702)"/>
<path d="M0 0 C1.45792884 -0.05399736 2.91642712 -0.09279177 4.375 -0.125 C5.18710937 -0.14820313 5.99921875 -0.17140625 6.8359375 -0.1953125 C9 0 9 0 11 2 C10.44444444 6.55555556 10.44444444 6.55555556 9 8 C7.48071962 8.07179964 5.95832518 8.08392007 4.4375 8.0625 C3.61121094 8.05347656 2.78492188 8.04445313 1.93359375 8.03515625 C1.29550781 8.02355469 0.65742187 8.01195312 0 8 C0 5.36 0 2.72 0 0 Z " fill="#4B3528" transform="translate(588,706)"/>
<path d="M0 0 C1.16015625 -0.03867187 1.16015625 -0.03867187 2.34375 -0.078125 C4.98830838 0.3243078 5.83240802 1.21895849 7.5 3.25 C6.51 4.735 6.51 4.735 5.5 6.25 C3.2578125 6.54296875 3.2578125 6.54296875 0.625 6.4375 C-0.23867188 6.41042969 -1.10234375 6.38335938 -1.9921875 6.35546875 C-2.81976562 6.32066406 -3.64734375 6.28585937 -4.5 6.25 C-5.82 6.25 -7.14 6.25 -8.5 6.25 C-9.16 5.59 -9.82 4.93 -10.5 4.25 C-7.34052546 0.78962313 -4.60708074 0.09214161 0 0 Z " fill="#D5B27A" transform="translate(886.5,701.75)"/>
<path d="M0 0 C1.62463842 -0.05395478 3.24978541 -0.09277195 4.875 -0.125 C5.77992188 -0.14820313 6.68484375 -0.17140625 7.6171875 -0.1953125 C10 0 10 0 12 2 C12 3.32 12 4.64 12 6 C9.47524538 7.26237731 7.68799534 7.09856404 4.875 7.0625 C3.96492187 7.05347656 3.05484375 7.04445313 2.1171875 7.03515625 C1.41851563 7.02355469 0.71984375 7.01195312 0 7 C0 4.69 0 2.38 0 0 Z " fill="#301F18" transform="translate(588,718)"/>
<path d="M0 0 C2.0622048 -0.054348 4.12482816 -0.09294961 6.1875 -0.125 C7.33605469 -0.14820313 8.48460937 -0.17140625 9.66796875 -0.1953125 C12.94962453 -0.00295284 15.09217785 0.50934749 18 2 C19.4375 3.875 19.4375 3.875 20 6 C19.07451225 8.69933926 18.57626463 9.71186768 16 11 C15.67 9.68 15.34 8.36 15 7 C11.7 6.34 8.4 5.68 5 5 C5 4.67 5 4.34 5 4 C8.465 3.505 8.465 3.505 12 3 C12 2.67 12 2.34 12 2 C8.04 1.67 4.08 1.34 0 1 C0 0.67 0 0.34 0 0 Z " fill="#DDBA82" transform="translate(621,702)"/>
<path d="M0 0 C1.98 0 3.96 0 6 0 C6 3.3 6 6.6 6 10 C5.01 10.33 4.02 10.66 3 11 C3 10.34 3 9.68 3 9 C2.01 9.33 1.02 9.66 0 10 C0 6.7 0 3.4 0 0 Z " fill="#D1AE7B" transform="translate(821,711)"/>
<path d="M0 0 C1.74965358 -0.05429959 3.49979787 -0.09292823 5.25 -0.125 C6.22453125 -0.14820313 7.1990625 -0.17140625 8.203125 -0.1953125 C11.0196498 0.00137219 12.60949036 0.55431084 15 2 C14.34 3.32 13.68 4.64 13 6 C9.7 5.67 6.4 5.34 3 5 C3.66 3.68 4.32 2.36 5 1 C3.35 1 1.7 1 0 1 C0 0.67 0 0.34 0 0 Z " fill="#CDAC76" transform="translate(747,702)"/>
<path d="M0 0 C3.63 0 7.26 0 11 0 C11 1.32 11 2.64 11 4 C7.37 4 3.74 4 0 4 C0 2.68 0 1.36 0 0 Z " fill="#EEC680" transform="translate(947,716)"/>
<path d="M0 0 C0.66 0.33 1.32 0.66 2 1 C1.75 4.375 1.75 4.375 1 8 C-1.0625 9.4375 -1.0625 9.4375 -3 10 C-3.99 9.01 -4.98 8.02 -6 7 C-5.34 6.67 -4.68 6.34 -4 6 C-3.67 5.01 -3.34 4.02 -3 3 C-1.4375 1.3125 -1.4375 1.3125 0 0 Z " fill="#E0BC7B" transform="translate(604,718)"/>
<path d="M0 0 C3.96 0 7.92 0 12 0 C12 1.65 12 3.3 12 5 C8.04 5 4.08 5 0 5 C1.32 4.01 2.64 3.02 4 2 C2.68 1.34 1.36 0.68 0 0 Z " fill="#CBA979" transform="translate(663,713)"/>
<path d="M0 0 C1.98 0 3.96 0 6 0 C5.34 1.98 4.68 3.96 4 6 C3.01 6 2.02 6 1 6 C0.34 7.32 -0.32 8.64 -1 10 C-1.66 10 -2.32 10 -3 10 C-2.01 6.7 -1.02 3.4 0 0 Z " fill="#D7B273" transform="translate(724,702)"/>
<path d="M0 0 C0 0.99 0 1.98 0 3 C-5.28 3 -10.56 3 -16 3 C-16 2.67 -16 2.34 -16 2 C-14.948125 1.87625 -13.89625 1.7525 -12.8125 1.625 C-9.1147768 1.17007934 -9.1147768 1.17007934 -6.3125 -0.125 C-3.70026891 -1.11341176 -2.57576158 -0.95398577 0 0 Z " fill="#F2CC8C" transform="translate(600,726)"/>
<path d="M0 0 C1.65 0 3.3 0 5 0 C5.66 1.98 6.32 3.96 7 6 C5.35 6.66 3.7 7.32 2 8 C1.34 5.36 0.68 2.72 0 0 Z " fill="#E7C689" transform="translate(689,702)"/>
<path d="M0 0 C0.89332031 0.22042969 1.78664063 0.44085937 2.70703125 0.66796875 C4.05861328 0.98701172 4.05861328 0.98701172 5.4375 1.3125 C6.12457031 1.49167969 6.81164062 1.67085937 7.51953125 1.85546875 C7.51953125 2.18546875 7.51953125 2.51546875 7.51953125 2.85546875 C3.64269038 4.04834286 0.60331202 4.85546875 -3.48046875 4.85546875 C-4.14046875 4.19546875 -4.80046875 3.53546875 -5.48046875 2.85546875 C-3.67264042 0.4710573 -3.06905193 -0.17882665 0 0 Z " fill="#EAC788" transform="translate(881.48046875,703.14453125)"/>
<path d="M0 0 C2 2 2 2 2.3125 4.5 C2.209375 5.325 2.10625 6.15 2 7 C1.01 7.66 0.02 8.32 -1 9 C-2.76462683 5.91190305 -3 4.76687864 -3 1 C-2.01 0.67 -1.02 0.34 0 0 Z " fill="#F6D599" transform="translate(695,708)"/>
<path d="M0 0 C1.65 0.33 3.3 0.66 5 1 C4.67 2.65 4.34 4.3 4 6 C2.35 5.67 0.7 5.34 -1 5 C-0.67 3.35 -0.34 1.7 0 0 Z " fill="#ECCB89" transform="translate(859,708)"/>
<path d="M0 0 C2 3 2 3 1.625 6.1875 C1.41875 7.115625 1.2125 8.04375 1 9 C-0.32 9.33 -1.64 9.66 -3 10 C-2.25 2.25 -2.25 2.25 0 0 Z " fill="#F4D493" transform="translate(705,711)"/>
<path d="M0 0 C2.0625 0.4375 2.0625 0.4375 4 1 C4.33 2.32 4.66 3.64 5 5 C3.35 5.33 1.7 5.66 0 6 C-0.38218767 4.34385343 -0.71395102 2.67542976 -1 1 C-0.67 0.67 -0.34 0.34 0 0 Z " fill="#EBC784" transform="translate(859,723)"/>
<path d="M0 0 C-3.31453606 2.1781237 -6.02961964 3.57076969 -10 4 C-10.66 3.67 -11.32 3.34 -12 3 C-12 2.34 -12 1.68 -12 1 C-3.96428571 -1.27678571 -3.96428571 -1.27678571 0 0 Z " fill="#493628" transform="translate(822,627)"/>
<path d="M0 0 C0.66 0 1.32 0 2 0 C1.46884894 4.51478398 -0.36620292 7.34666857 -3 11 C-3 6.97353778 -1.79493901 3.58987802 0 0 Z " fill="#F0D193" transform="translate(893,705)"/>
<path d="M0 0 C2.64 0 5.28 0 8 0 C8 0.99 8 1.98 8 3 C5.03 3 2.06 3 -1 3 C-0.67 2.01 -0.34 1.02 0 0 Z " fill="#FCDD9B" transform="translate(589,714)"/>
<path d="M0 0 C2.97 0 5.94 0 9 0 C9 0.66 9 1.32 9 2 C2.25 3.125 2.25 3.125 0 2 C0 1.34 0 0.68 0 0 Z " fill="#DEB87E" transform="translate(882,702)"/>
<path d="M0 0 C2.64 0.33 5.28 0.66 8 1 C7.34 2.32 6.68 3.64 6 5 C5.01 4.67 4.02 4.34 3 4 C3 3.01 3 2.02 3 1 C2.01 0.67 1.02 0.34 0 0 Z " fill="#E3C084" transform="translate(754,703)"/>
<path d="M0 0 C0.99 0.99 1.98 1.98 3 3 C3.66 2.67 4.32 2.34 5 2 C5 3.32 5 4.64 5 6 C3.35 6 1.7 6 0 6 C0 4.02 0 2.04 0 0 Z " fill="#E4BA81" transform="translate(924,723)"/>
<path d="M0 0 C2 3 2 3 1.75 6.0625 C1 9 1 9 -1 11 C-1.625 9.1875 -1.625 9.1875 -2 7 C-1.34 6.01 -0.68 5.02 0 4 C0 2.68 0 1.36 0 0 Z " fill="#DDBA85" transform="translate(713,708)"/>
<path d="M0 0 C0 3 0 3 -1 5 C0.32 5.33 1.64 5.66 3 6 C1.02 6 -0.96 6 -3 6 C-2.625 3.5625 -2.625 3.5625 -2 1 C-1.34 0.67 -0.68 0.34 0 0 Z " fill="#D7B67C" transform="translate(975,723)"/>
<path d="M0 0 C1.98 0 3.96 0 6 0 C6 0.66 6 1.32 6 2 C4.68 2 3.36 2 2 2 C1.67 2.99 1.34 3.98 1 5 C0.67 5 0.34 5 0 5 C0 3.35 0 1.7 0 0 Z " fill="#CBA770" transform="translate(724,702)"/>
</svg>
