<svg xmlns="http://www.w3.org/2000/svg" viewBox="20 15 200 200" fill="none" stroke="#C9A84C" stroke-linecap="round" stroke-linejoin="round">
  <!-- Hollow cross outline -->
  <path stroke-width="6.5" d="M107,20 H133 V63 H163 V88 H133 V132 H107 V88 H77 V63 H107 Z"/>
  <!-- Bible left page -->
  <path stroke-width="5" d="M120,132 C100,124 68,118 42,122 C28,124 24,132 24,136 C33,158 63,172 98,175 C111,176 118,171 120,162"/>
  <!-- Bible right page -->
  <path stroke-width="5" d="M120,132 C140,124 172,118 198,122 C212,124 216,132 216,136 C207,158 177,172 142,175 C129,176 122,171 120,162"/>
  <!-- Bible bottom cover -->
  <path stroke-width="5" d="M24,136 Q120,178 216,136"/>
  <!-- Page lines left -->
  <line x1="102" y1="142" x2="68" y2="148" stroke-width="3.2"/>
  <line x1="100" y1="152" x2="64" y2="158" stroke-width="3.2"/>
  <line x1="98"  y1="162" x2="66" y2="167" stroke-width="3.2"/>
  <!-- Page lines right -->
  <line x1="138" y1="142" x2="172" y2="148" stroke-width="3.2"/>
  <line x1="140" y1="152" x2="176" y2="158" stroke-width="3.2"/>
  <line x1="142" y1="162" x2="174" y2="167" stroke-width="3.2"/>
  <!-- Book stand -->
  <line x1="88"  y1="181" x2="152" y2="181" stroke-width="4.5"/>
  <line x1="100" y1="181" x2="112" y2="207" stroke-width="4.2"/>
  <line x1="140" y1="181" x2="128" y2="207" stroke-width="4.2"/>
</svg>
